<svg width="272" height="14" viewBox="0 0 272 14" fill="none" xmlns="http://www.w3.org/2000/svg">
<path d="M10.186 6.08194C10.186 6.87527 10.0553 7.58927 9.79395 8.22394C9.53262 8.84927 9.18262 9.38127 8.74395 9.81994C8.30528 10.2493 7.79662 10.5806 7.21795 10.8139C6.63928 11.0379 6.03262 11.1499 5.39795 11.1499C4.76328 11.1499 4.15662 11.0379 3.57795 10.8139C2.99928 10.5806 2.49062 10.2493 2.05195 9.81994C1.61328 9.38127 1.26328 8.84927 1.00195 8.22394C0.740618 7.58927 0.609951 6.87527 0.609951 6.08194C0.609951 5.28861 0.740618 4.57927 1.00195 3.95394C1.26328 3.31927 1.61328 2.78727 2.05195 2.35794C2.49062 1.91927 2.99928 1.58794 3.57795 1.36394C4.15662 1.13061 4.76328 1.01394 5.39795 1.01394C6.03262 1.01394 6.63928 1.13061 7.21795 1.36394C7.79662 1.58794 8.30528 1.91927 8.74395 2.35794C9.18262 2.78727 9.53262 3.31927 9.79395 3.95394C10.0553 4.57927 10.186 5.28861 10.186 6.08194ZM9.16395 6.08194C9.16395 5.46594 9.07062 4.90594 8.88395 4.40194C8.69728 3.88861 8.43595 3.44994 8.09995 3.08594C7.77328 2.72194 7.37662 2.44194 6.90995 2.24594C6.45262 2.04994 5.94862 1.95194 5.39795 1.95194C4.84728 1.95194 4.33862 2.04994 3.87195 2.24594C3.41462 2.44194 3.01795 2.72194 2.68195 3.08594C2.35528 3.44994 2.09862 3.88861 1.91195 4.40194C1.72528 4.90594 1.63195 5.46594 1.63195 6.08194C1.63195 6.69794 1.72528 7.26261 1.91195 7.77594C2.09862 8.27994 2.35528 8.71394 2.68195 9.07794C3.01795 9.44194 3.41462 9.72194 3.87195 9.91794C4.33862 10.1139 4.84728 10.2119 5.39795 10.2119C5.94862 10.2119 6.45262 10.1139 6.90995 9.91794C7.37662 9.72194 7.77328 9.44194 8.09995 9.07794C8.43595 8.71394 8.69728 8.27994 8.88395 7.77594C9.07062 7.26261 9.16395 6.69794 9.16395 6.08194ZM5.56595 8.97994C5.16462 8.97994 4.80062 8.91461 4.47395 8.78394C4.14728 8.65327 3.86262 8.46661 3.61995 8.22394C3.38662 7.98127 3.20462 7.68261 3.07395 7.32794C2.94328 6.96394 2.87795 6.54861 2.87795 6.08194C2.87795 5.62461 2.94795 5.21861 3.08795 4.86394C3.23728 4.50927 3.43328 4.21061 3.67595 3.96794C3.91862 3.71594 4.20328 3.52461 4.52995 3.39394C4.85662 3.26327 5.20195 3.19794 5.56595 3.19794C5.80862 3.19794 6.02795 3.21661 6.22395 3.25394C6.42928 3.29127 6.60662 3.33794 6.75595 3.39394C6.90528 3.44061 7.02662 3.49194 7.11995 3.54794C7.22262 3.59461 7.29262 3.63194 7.32995 3.65994L7.00795 4.49994C6.89595 4.43461 6.71395 4.35994 6.46195 4.27594C6.21928 4.18261 5.93462 4.13594 5.60795 4.13594C5.13195 4.13594 4.73528 4.30394 4.41795 4.63994C4.10062 4.96661 3.94195 5.44727 3.94195 6.08194C3.94195 6.66061 4.08662 7.13661 4.37595 7.50994C4.66528 7.87394 5.08995 8.05594 5.64995 8.05594C6.01395 8.05594 6.31262 8.01861 6.54595 7.94394C6.78862 7.85994 6.97529 7.78527 7.10595 7.71994L7.37195 8.55994C7.32529 8.58794 7.24595 8.62994 7.13395 8.68594C7.03128 8.73261 6.90062 8.77927 6.74195 8.82594C6.58328 8.86327 6.40128 8.90061 6.19595 8.93794C5.99995 8.96594 5.78995 8.97994 5.56595 8.97994ZM20.8805 3.71594C20.8805 4.05194 20.8105 4.37861 20.6705 4.69594C20.5399 5.00394 20.3625 5.31194 20.1385 5.61994C19.9145 5.91861 19.6625 6.21727 19.3825 6.51594C19.1025 6.80527 18.8225 7.08994 18.5425 7.36994C18.3839 7.52861 18.1972 7.71527 17.9825 7.92994C17.7772 8.14461 17.5812 8.36861 17.3945 8.60194C17.2079 8.83527 17.0492 9.05927 16.9185 9.27394C16.7972 9.48861 16.7365 9.67527 16.7365 9.83394H21.2025V10.9399H15.3225C15.3132 10.8839 15.3085 10.8279 15.3085 10.7719C15.3085 10.7159 15.3085 10.6646 15.3085 10.6179C15.3085 10.1793 15.3785 9.77327 15.5185 9.39994C15.6679 9.01727 15.8592 8.65794 16.0925 8.32194C16.3259 7.98594 16.5872 7.66861 16.8765 7.36994C17.1659 7.07127 17.4505 6.78194 17.7305 6.50194C17.9639 6.27794 18.1832 6.05861 18.3885 5.84394C18.6032 5.61994 18.7899 5.40061 18.9485 5.18594C19.1165 4.96194 19.2472 4.73327 19.3405 4.49994C19.4432 4.26661 19.4945 4.01927 19.4945 3.75794C19.4945 3.47794 19.4479 3.23994 19.3545 3.04394C19.2705 2.84794 19.1539 2.68461 19.0045 2.55394C18.8552 2.42327 18.6779 2.32994 18.4725 2.27394C18.2765 2.20861 18.0665 2.17594 17.8425 2.17594C17.5719 2.17594 17.3245 2.21327 17.1005 2.28794C16.8765 2.36261 16.6759 2.45127 16.4985 2.55394C16.3212 2.64727 16.1719 2.74994 16.0505 2.86194C15.9292 2.96461 15.8359 3.04394 15.7705 3.09994L15.1265 2.17594C15.2105 2.08261 15.3365 1.97061 15.5045 1.83994C15.6725 1.69994 15.8732 1.56927 16.1065 1.44794C16.3399 1.32661 16.6012 1.22394 16.8905 1.13994C17.1799 1.05594 17.4925 1.01394 17.8285 1.01394C18.8459 1.01394 19.6065 1.25194 20.1105 1.72794C20.6239 2.19461 20.8805 2.85727 20.8805 3.71594ZM22.9449 6.08194C22.9449 4.45794 23.2295 3.20727 23.7989 2.32994C24.3775 1.45261 25.1755 1.01394 26.1929 1.01394C27.2102 1.01394 28.0035 1.45261 28.5729 2.32994C29.1515 3.20727 29.4409 4.45794 29.4409 6.08194C29.4409 7.70594 29.1515 8.95661 28.5729 9.83394C28.0035 10.7113 27.2102 11.1499 26.1929 11.1499C25.1755 11.1499 24.3775 10.7113 23.7989 9.83394C23.2295 8.95661 22.9449 7.70594 22.9449 6.08194ZM28.0689 6.08194C28.0689 5.54994 28.0362 5.04594 27.9709 4.56994C27.9149 4.09394 27.8122 3.67861 27.6629 3.32394C27.5229 2.96927 27.3315 2.68927 27.0889 2.48394C26.8462 2.26927 26.5475 2.16194 26.1929 2.16194C25.8382 2.16194 25.5395 2.26927 25.2969 2.48394C25.0542 2.68927 24.8582 2.96927 24.7089 3.32394C24.5689 3.67861 24.4662 4.09394 24.4009 4.56994C24.3449 5.04594 24.3169 5.54994 24.3169 6.08194C24.3169 6.61394 24.3449 7.11794 24.4009 7.59394C24.4662 8.06994 24.5689 8.48527 24.7089 8.83994C24.8582 9.19461 25.0542 9.47927 25.2969 9.69394C25.5395 9.89927 25.8382 10.0019 26.1929 10.0019C26.5475 10.0019 26.8462 9.89927 27.0889 9.69394C27.3315 9.47927 27.5229 9.19461 27.6629 8.83994C27.8122 8.48527 27.9149 8.06994 27.9709 7.59394C28.0362 7.11794 28.0689 6.61394 28.0689 6.08194ZM36.6852 3.71594C36.6852 4.05194 36.6152 4.37861 36.4752 4.69594C36.3446 5.00394 36.1672 5.31194 35.9432 5.61994C35.7192 5.91861 35.4672 6.21727 35.1872 6.51594C34.9072 6.80527 34.6272 7.08994 34.3472 7.36994C34.1886 7.52861 34.0019 7.71527 33.7872 7.92994C33.5819 8.14461 33.3859 8.36861 33.1992 8.60194C33.0126 8.83527 32.8539 9.05927 32.7232 9.27394C32.6019 9.48861 32.5412 9.67527 32.5412 9.83394H37.0072V10.9399H31.1272C31.1179 10.8839 31.1132 10.8279 31.1132 10.7719C31.1132 10.7159 31.1132 10.6646 31.1132 10.6179C31.1132 10.1793 31.1832 9.77327 31.3232 9.39994C31.4726 9.01727 31.6639 8.65794 31.8972 8.32194C32.1306 7.98594 32.3919 7.66861 32.6812 7.36994C32.9706 7.07127 33.2552 6.78194 33.5352 6.50194C33.7686 6.27794 33.9879 6.05861 34.1932 5.84394C34.4079 5.61994 34.5946 5.40061 34.7532 5.18594C34.9212 4.96194 35.0519 4.73327 35.1452 4.49994C35.2479 4.26661 35.2992 4.01927 35.2992 3.75794C35.2992 3.47794 35.2526 3.23994 35.1592 3.04394C35.0752 2.84794 34.9586 2.68461 34.8092 2.55394C34.6599 2.42327 34.4826 2.32994 34.2772 2.27394C34.0812 2.20861 33.8712 2.17594 33.6472 2.17594C33.3766 2.17594 33.1292 2.21327 32.9052 2.28794C32.6812 2.36261 32.4806 2.45127 32.3032 2.55394C32.1259 2.64727 31.9766 2.74994 31.8552 2.86194C31.7339 2.96461 31.6406 3.04394 31.5752 3.09994L30.9312 2.17594C31.0152 2.08261 31.1412 1.97061 31.3092 1.83994C31.4772 1.69994 31.6779 1.56927 31.9112 1.44794C32.1446 1.32661 32.4059 1.22394 32.6952 1.13994C32.9846 1.05594 33.2972 1.01394 33.6332 1.01394C34.6506 1.01394 35.4112 1.25194 35.9152 1.72794C36.4286 2.19461 36.6852 2.85727 36.6852 3.71594ZM38.6096 7.57994C38.7869 7.16927 39.0296 6.69327 39.3376 6.15194C39.6456 5.60127 39.9909 5.03661 40.3736 4.45794C40.7656 3.87927 41.1809 3.30994 41.6196 2.74994C42.0676 2.18994 42.5156 1.68594 42.9636 1.23794H44.2096V7.39794H45.3576V8.46194H44.2096V10.9399H42.9496V8.46194H38.6096V7.57994ZM42.9496 2.77794C42.6696 3.07661 42.3849 3.41261 42.0956 3.78594C41.8156 4.14994 41.5402 4.53261 41.2696 4.93394C40.9989 5.33527 40.7422 5.74594 40.4996 6.16594C40.2662 6.58594 40.0562 6.99661 39.8696 7.39794H42.9496V2.77794ZM54.5681 11.1499C53.8868 11.1499 53.2661 11.0379 52.7061 10.8139C52.1461 10.5899 51.6655 10.2633 51.2641 9.83394C50.8628 9.40461 50.5501 8.87727 50.3261 8.25194C50.1115 7.61727 50.0041 6.89394 50.0041 6.08194C50.0041 5.26994 50.1255 4.55127 50.3681 3.92594C50.6201 3.29127 50.9561 2.75927 51.3761 2.32994C51.7961 1.90061 52.2861 1.57394 52.8461 1.34994C53.4061 1.12594 54.0035 1.01394 54.6381 1.01394C55.0395 1.01394 55.3988 1.04194 55.7161 1.09794C56.0428 1.15394 56.3228 1.21927 56.5561 1.29394C56.7988 1.36861 56.9948 1.44327 57.1441 1.51794C57.2935 1.59261 57.3961 1.64861 57.4521 1.68594L57.0601 2.80594C56.9761 2.74994 56.8548 2.68927 56.6961 2.62394C56.5375 2.55861 56.3555 2.49327 56.1501 2.42794C55.9541 2.36261 55.7348 2.31127 55.4921 2.27394C55.2588 2.22727 55.0208 2.20394 54.7781 2.20394C54.2648 2.20394 53.8028 2.29261 53.3921 2.46994C52.9815 2.64727 52.6315 2.90394 52.3421 3.23994C52.0528 3.57594 51.8288 3.98661 51.6701 4.47194C51.5208 4.94794 51.4461 5.48461 51.4461 6.08194C51.4461 6.66061 51.5115 7.18794 51.6421 7.66394C51.7821 8.13994 51.9875 8.55061 52.2581 8.89594C52.5288 9.23194 52.8648 9.49327 53.2661 9.67994C53.6768 9.86661 54.1528 9.95994 54.6941 9.95994C55.3195 9.95994 55.8375 9.89461 56.2481 9.76394C56.6588 9.63327 56.9668 9.51661 57.1721 9.41394L57.5221 10.5339C57.4568 10.5806 57.3401 10.6413 57.1721 10.7159C57.0041 10.7813 56.7941 10.8466 56.5421 10.9119C56.2901 10.9773 55.9961 11.0333 55.6601 11.0799C55.3241 11.1266 54.9601 11.1499 54.5681 11.1499ZM65.2147 7.29994C65.2147 7.87861 65.1307 8.40127 64.9627 8.86794C64.7947 9.33461 64.5567 9.73594 64.2487 10.0719C63.95 10.4079 63.5907 10.6693 63.1707 10.8559C62.7507 11.0333 62.2934 11.1219 61.7987 11.1219C61.304 11.1219 60.8467 11.0333 60.4267 10.8559C60.0067 10.6693 59.6427 10.4079 59.3347 10.0719C59.036 9.73594 58.8027 9.33461 58.6347 8.86794C58.4667 8.40127 58.3827 7.87861 58.3827 7.29994C58.3827 6.73061 58.4667 6.21261 58.6347 5.74594C58.8027 5.26994 59.036 4.86394 59.3347 4.52794C59.6427 4.19194 60.0067 3.93527 60.4267 3.75794C60.8467 3.57127 61.304 3.47794 61.7987 3.47794C62.2934 3.47794 62.7507 3.57127 63.1707 3.75794C63.5907 3.93527 63.95 4.19194 64.2487 4.52794C64.5567 4.86394 64.7947 5.26994 64.9627 5.74594C65.1307 6.21261 65.2147 6.73061 65.2147 7.29994ZM63.8567 7.29994C63.8567 6.47861 63.67 5.82994 63.2967 5.35394C62.9327 4.86861 62.4334 4.62594 61.7987 4.62594C61.164 4.62594 60.66 4.86861 60.2867 5.35394C59.9227 5.82994 59.7407 6.47861 59.7407 7.29994C59.7407 8.12127 59.9227 8.77461 60.2867 9.25994C60.66 9.73594 61.164 9.97394 61.7987 9.97394C62.4334 9.97394 62.9327 9.73594 63.2967 9.25994C63.67 8.77461 63.8567 8.12127 63.8567 7.29994ZM67.0465 3.86994C67.3452 3.79527 67.7418 3.71594 68.2365 3.63194C68.7312 3.54794 69.3005 3.50594 69.9445 3.50594C70.5232 3.50594 71.0038 3.58994 71.3865 3.75794C71.7692 3.91661 72.0725 4.14527 72.2965 4.44394C72.5298 4.73327 72.6932 5.08327 72.7865 5.49394C72.8798 5.90461 72.9265 6.35727 72.9265 6.85194V10.9399H71.6245V7.13194C71.6245 6.68394 71.5918 6.30127 71.5265 5.98394C71.4705 5.66661 71.3725 5.40994 71.2325 5.21394C71.0925 5.01794 70.9058 4.87794 70.6725 4.79394C70.4392 4.70061 70.1498 4.65394 69.8045 4.65394C69.6645 4.65394 69.5198 4.65861 69.3705 4.66794C69.2212 4.67727 69.0765 4.69127 68.9365 4.70994C68.8058 4.71927 68.6845 4.73327 68.5725 4.75194C68.4698 4.77061 68.3952 4.78461 68.3485 4.79394V10.9399H67.0465V3.86994ZM76.7796 10.0019C77.3116 10.0019 77.7036 9.93194 77.9556 9.79194C78.2169 9.65194 78.3476 9.42794 78.3476 9.11994C78.3476 8.80261 78.2216 8.55061 77.9696 8.36394C77.7176 8.17727 77.3022 7.96727 76.7236 7.73394C76.4436 7.62194 76.1729 7.50994 75.9116 7.39794C75.6596 7.27661 75.4402 7.13661 75.2536 6.97794C75.0669 6.81927 74.9176 6.62794 74.8056 6.40394C74.6936 6.17994 74.6376 5.90461 74.6376 5.57794C74.6376 4.93394 74.8756 4.42527 75.3516 4.05194C75.8276 3.66927 76.4762 3.47794 77.2976 3.47794C77.5029 3.47794 77.7082 3.49194 77.9136 3.51994C78.1189 3.53861 78.3102 3.56661 78.4876 3.60394C78.6649 3.63194 78.8189 3.66461 78.9496 3.70194C79.0896 3.73927 79.1969 3.77194 79.2716 3.79994L79.0336 4.91994C78.8936 4.84527 78.6742 4.77061 78.3756 4.69594C78.0769 4.61194 77.7176 4.56994 77.2976 4.56994C76.9336 4.56994 76.6162 4.64461 76.3456 4.79394C76.0749 4.93394 75.9396 5.15794 75.9396 5.46594C75.9396 5.62461 75.9676 5.76461 76.0236 5.88594C76.0889 6.00727 76.1822 6.11927 76.3036 6.22194C76.4342 6.31527 76.5929 6.40394 76.7796 6.48794C76.9662 6.57194 77.1902 6.66061 77.4516 6.75394C77.7969 6.88461 78.1049 7.01527 78.3756 7.14594C78.6462 7.26727 78.8749 7.41194 79.0616 7.57994C79.2576 7.74794 79.4069 7.95327 79.5096 8.19594C79.6122 8.42927 79.6636 8.71861 79.6636 9.06394C79.6636 9.73594 79.4116 10.2446 78.9076 10.5899C78.4129 10.9353 77.7036 11.1079 76.7796 11.1079C76.1356 11.1079 75.6316 11.0519 75.2676 10.9399C74.9036 10.8373 74.6562 10.7579 74.5256 10.7019L74.7636 9.58194C74.9129 9.63794 75.1509 9.72194 75.4776 9.83394C75.8042 9.94594 76.2382 10.0019 76.7796 10.0019ZM87.1296 10.7299C86.831 10.8046 86.4343 10.8839 85.9396 10.9679C85.4543 11.0519 84.8896 11.0939 84.2456 11.0939C83.6856 11.0939 83.2143 11.0146 82.8316 10.8559C82.449 10.6879 82.141 10.4546 81.9076 10.1559C81.6743 9.85727 81.5063 9.50727 81.4036 9.10594C81.301 8.69527 81.2496 8.24261 81.2496 7.74794V3.65994H82.5516V7.46794C82.5516 8.35461 82.6916 8.98927 82.9716 9.37194C83.2516 9.75461 83.723 9.94594 84.3856 9.94594C84.5256 9.94594 84.6703 9.94127 84.8196 9.93194C84.969 9.92261 85.109 9.91327 85.2396 9.90394C85.3703 9.88527 85.487 9.87127 85.5896 9.86194C85.7016 9.84327 85.781 9.82461 85.8276 9.80594V3.65994H87.1296V10.7299ZM91.5567 11.0799C90.754 11.0613 90.1847 10.8886 89.8487 10.5619C89.5127 10.2353 89.3447 9.72661 89.3447 9.03594V0.299941L90.6467 0.0759411V8.82594C90.6467 9.04061 90.6654 9.21794 90.7027 9.35794C90.74 9.49794 90.8007 9.60994 90.8847 9.69394C90.9687 9.77794 91.0807 9.84327 91.2207 9.88994C91.3607 9.92727 91.5334 9.95994 91.7387 9.98794L91.5567 11.0799ZM94.4188 3.65994H97.1768V4.75194H94.4188V8.11194C94.4188 8.47594 94.4468 8.77927 94.5028 9.02194C94.5588 9.25527 94.6428 9.44194 94.7548 9.58194C94.8668 9.71261 95.0068 9.80594 95.1748 9.86194C95.3428 9.91794 95.5388 9.94594 95.7628 9.94594C96.1548 9.94594 96.4675 9.90394 96.7008 9.81994C96.9435 9.72661 97.1115 9.66127 97.2048 9.62394L97.4568 10.7019C97.3261 10.7673 97.0975 10.8466 96.7708 10.9399C96.4441 11.0426 96.0708 11.0939 95.6508 11.0939C95.1561 11.0939 94.7455 11.0333 94.4188 10.9119C94.1015 10.7813 93.8448 10.5899 93.6488 10.3379C93.4528 10.0859 93.3128 9.77794 93.2288 9.41394C93.1541 9.04061 93.1168 8.61127 93.1168 8.12594V1.62994L94.4188 1.40594V3.65994ZM97.5307 6.13794H100.989V7.35594H97.5307V6.13794ZM102.554 1.23794H103.912V10.9399H102.554V1.23794ZM112.964 10.9399C112.759 10.5946 112.521 10.2073 112.25 9.77794C111.989 9.34861 111.704 8.90527 111.396 8.44794C111.088 7.98127 110.766 7.50994 110.43 7.03394C110.103 6.55794 109.777 6.10061 109.45 5.66194C109.123 5.21394 108.806 4.79394 108.498 4.40194C108.19 4.00994 107.905 3.66461 107.644 3.36594V10.9399H106.314V1.23794H107.392C107.831 1.70461 108.297 2.25061 108.792 2.87594C109.296 3.49194 109.791 4.13127 110.276 4.79394C110.771 5.44727 111.233 6.09127 111.662 6.72594C112.101 7.36061 112.469 7.92527 112.768 8.41994V1.23794H114.098V10.9399H112.964ZM122.422 6.16594H123.78V10.7019C123.668 10.7393 123.504 10.7813 123.29 10.8279C123.084 10.8746 122.842 10.9213 122.562 10.9679C122.291 11.0146 121.992 11.0519 121.666 11.0799C121.339 11.1173 121.008 11.1359 120.672 11.1359C119.99 11.1359 119.37 11.0239 118.81 10.7999C118.25 10.5759 117.769 10.2493 117.368 9.81994C116.966 9.39061 116.654 8.86327 116.43 8.23794C116.215 7.61261 116.108 6.89394 116.108 6.08194C116.108 5.26994 116.229 4.55127 116.472 3.92594C116.724 3.29127 117.06 2.75927 117.48 2.32994C117.9 1.90061 118.39 1.57394 118.95 1.34994C119.519 1.12594 120.126 1.01394 120.77 1.01394C121.208 1.01394 121.596 1.04194 121.932 1.09794C122.277 1.15394 122.571 1.21927 122.814 1.29394C123.056 1.36861 123.252 1.44327 123.402 1.51794C123.56 1.59261 123.668 1.64861 123.724 1.68594L123.29 2.81994C123.019 2.64261 122.66 2.49794 122.212 2.38594C121.764 2.26461 121.306 2.20394 120.84 2.20394C120.345 2.20394 119.892 2.29261 119.482 2.46994C119.08 2.64727 118.735 2.90394 118.446 3.23994C118.166 3.57594 117.946 3.98661 117.788 4.47194C117.629 4.94794 117.55 5.48461 117.55 6.08194C117.55 6.66061 117.615 7.18794 117.746 7.66394C117.886 8.13994 118.091 8.55061 118.362 8.89594C118.642 9.23194 118.982 9.49327 119.384 9.67994C119.794 9.86661 120.275 9.95994 120.826 9.95994C121.218 9.95994 121.549 9.94127 121.82 9.90394C122.1 9.85727 122.3 9.81527 122.422 9.77794V6.16594ZM127.362 10.1839C127.362 10.4359 127.278 10.6553 127.11 10.8419C126.942 11.0286 126.713 11.1219 126.424 11.1219C126.135 11.1219 125.906 11.0286 125.738 10.8419C125.57 10.6553 125.486 10.4359 125.486 10.1839C125.486 9.93194 125.57 9.71261 125.738 9.52594C125.906 9.33927 126.135 9.24594 126.424 9.24594C126.713 9.24594 126.942 9.33927 127.11 9.52594C127.278 9.71261 127.362 9.93194 127.362 10.1839ZM135.209 11.0239C135.013 11.0239 134.799 11.0193 134.565 11.0099C134.341 11.0006 134.113 10.9866 133.879 10.9679C133.655 10.9493 133.431 10.9259 133.207 10.8979C132.983 10.8699 132.778 10.8326 132.591 10.7859V1.37794C132.778 1.33127 132.983 1.29394 133.207 1.26594C133.431 1.23794 133.655 1.21461 133.879 1.19594C134.113 1.17727 134.341 1.16327 134.565 1.15394C134.789 1.14461 134.999 1.13994 135.195 1.13994C135.755 1.13994 136.278 1.18194 136.763 1.26594C137.258 1.34994 137.683 1.49461 138.037 1.69994C138.401 1.89594 138.686 2.15727 138.891 2.48394C139.097 2.81061 139.199 3.21194 139.199 3.68794C139.199 4.21994 139.073 4.65861 138.821 5.00394C138.569 5.33994 138.233 5.59194 137.813 5.75994C138.383 5.92794 138.835 6.19394 139.171 6.55794C139.507 6.92194 139.675 7.43527 139.675 8.09794C139.675 9.06861 139.316 9.80127 138.597 10.2959C137.888 10.7813 136.759 11.0239 135.209 11.0239ZM133.935 6.41794V9.83394C134.038 9.84327 134.159 9.85261 134.299 9.86194C134.421 9.87127 134.561 9.88061 134.719 9.88994C134.887 9.88994 135.079 9.88994 135.293 9.88994C135.695 9.88994 136.073 9.86661 136.427 9.81994C136.791 9.76394 137.109 9.67061 137.379 9.53994C137.65 9.40927 137.865 9.22727 138.023 8.99394C138.191 8.76061 138.275 8.46661 138.275 8.11194C138.275 7.79461 138.215 7.52861 138.093 7.31394C137.972 7.08994 137.795 6.91261 137.561 6.78194C137.337 6.65127 137.067 6.55794 136.749 6.50194C136.432 6.44594 136.077 6.41794 135.685 6.41794H133.935ZM133.935 5.32594H135.363C135.699 5.32594 136.017 5.30261 136.315 5.25594C136.614 5.20927 136.871 5.12527 137.085 5.00394C137.309 4.88261 137.482 4.72394 137.603 4.52794C137.734 4.33194 137.799 4.08461 137.799 3.78594C137.799 3.50594 137.734 3.27261 137.603 3.08594C137.473 2.88994 137.291 2.73594 137.057 2.62394C136.833 2.50261 136.567 2.41394 136.259 2.35794C135.951 2.30194 135.625 2.27394 135.279 2.27394C134.934 2.27394 134.663 2.27861 134.467 2.28794C134.271 2.29727 134.094 2.31127 133.935 2.32994V5.32594ZM144.668 11.1079C144.08 11.1079 143.562 11.0146 143.114 10.8279C142.675 10.6413 142.302 10.3799 141.994 10.0439C141.695 9.70794 141.471 9.31127 141.322 8.85394C141.172 8.38727 141.098 7.87394 141.098 7.31394C141.098 6.75394 141.177 6.24061 141.336 5.77394C141.504 5.30727 141.737 4.90594 142.036 4.56994C142.334 4.22461 142.698 3.95861 143.128 3.77194C143.566 3.57594 144.052 3.47794 144.584 3.47794C144.91 3.47794 145.237 3.50594 145.564 3.56194C145.89 3.61794 146.203 3.70661 146.502 3.82794L146.208 4.93394C146.012 4.84061 145.783 4.76594 145.522 4.70994C145.27 4.65394 144.999 4.62594 144.71 4.62594C143.982 4.62594 143.422 4.85461 143.03 5.31194C142.647 5.76927 142.456 6.43661 142.456 7.31394C142.456 7.70594 142.498 8.06527 142.582 8.39194C142.675 8.71861 142.815 8.99861 143.002 9.23194C143.198 9.46527 143.445 9.64727 143.744 9.77794C144.042 9.89927 144.406 9.95994 144.836 9.95994C145.181 9.95994 145.494 9.92727 145.774 9.86194C146.054 9.79661 146.273 9.72661 146.432 9.65194L146.614 10.7439C146.539 10.7906 146.432 10.8373 146.292 10.8839C146.152 10.9213 145.993 10.9539 145.816 10.9819C145.638 11.0193 145.447 11.0473 145.242 11.0659C145.046 11.0939 144.854 11.1079 144.668 11.1079ZM147.605 7.31394C147.605 6.66994 147.699 6.10994 147.885 5.63394C148.072 5.14861 148.319 4.74727 148.627 4.42994C148.935 4.11261 149.29 3.87461 149.691 3.71594C150.093 3.55727 150.503 3.47794 150.923 3.47794C151.903 3.47794 152.655 3.78594 153.177 4.40194C153.7 5.00861 153.961 5.93727 153.961 7.18794C153.961 7.24394 153.961 7.31861 153.961 7.41194C153.961 7.49594 153.957 7.57527 153.947 7.64994H148.963C149.019 8.40594 149.239 8.97994 149.621 9.37194C150.004 9.76394 150.601 9.95994 151.413 9.95994C151.871 9.95994 152.253 9.92261 152.561 9.84794C152.879 9.76394 153.117 9.68461 153.275 9.60994L153.457 10.7019C153.299 10.7859 153.019 10.8746 152.617 10.9679C152.225 11.0613 151.777 11.1079 151.273 11.1079C150.639 11.1079 150.088 11.0146 149.621 10.8279C149.164 10.6319 148.786 10.3659 148.487 10.0299C148.189 9.69394 147.965 9.29727 147.815 8.83994C147.675 8.37327 147.605 7.86461 147.605 7.31394ZM152.603 6.59994C152.613 6.01194 152.463 5.53127 152.155 5.15794C151.857 4.77527 151.441 4.58394 150.909 4.58394C150.611 4.58394 150.345 4.64461 150.111 4.76594C149.887 4.87794 149.696 5.02727 149.537 5.21394C149.379 5.40061 149.253 5.61527 149.159 5.85794C149.075 6.10061 149.019 6.34794 148.991 6.59994H152.603ZM164.924 10.9399H163.622V4.75194H160.374V10.9399H159.072V3.65994H164.924V10.9399ZM172.22 7.31394C172.22 6.46461 172.01 5.81127 171.59 5.35394C171.17 4.89661 170.61 4.66794 169.91 4.66794C169.518 4.66794 169.21 4.68194 168.986 4.70994C168.771 4.73794 168.598 4.77061 168.468 4.80794V9.39994C168.626 9.53061 168.855 9.65661 169.154 9.77794C169.452 9.89927 169.779 9.95994 170.134 9.95994C170.507 9.95994 170.824 9.89461 171.086 9.76394C171.356 9.62394 171.576 9.43727 171.744 9.20394C171.912 8.96127 172.033 8.68127 172.108 8.36394C172.182 8.03727 172.22 7.68727 172.22 7.31394ZM173.578 7.31394C173.578 7.86461 173.503 8.37327 173.354 8.83994C173.214 9.30661 173.004 9.70794 172.724 10.0439C172.444 10.3799 172.098 10.6413 171.688 10.8279C171.286 11.0146 170.824 11.1079 170.302 11.1079C169.882 11.1079 169.508 11.0519 169.182 10.9399C168.864 10.8279 168.626 10.7206 168.468 10.6179V13.5299H167.166V3.88394C167.474 3.80927 167.856 3.72994 168.314 3.64594C168.78 3.55261 169.317 3.50594 169.924 3.50594C170.484 3.50594 170.988 3.59461 171.436 3.77194C171.884 3.94927 172.266 4.20127 172.584 4.52794C172.901 4.85461 173.144 5.25594 173.312 5.73194C173.489 6.19861 173.578 6.72594 173.578 7.31394ZM177.874 10.0019C178.182 10.0019 178.452 9.99727 178.686 9.98794C178.928 9.96927 179.129 9.94127 179.288 9.90394V7.73394C179.194 7.68727 179.04 7.64994 178.826 7.62194C178.62 7.58461 178.368 7.56594 178.07 7.56594C177.874 7.56594 177.664 7.57994 177.44 7.60794C177.225 7.63594 177.024 7.69661 176.838 7.78994C176.66 7.87394 176.511 7.99527 176.39 8.15394C176.268 8.30327 176.208 8.50394 176.208 8.75594C176.208 9.22261 176.357 9.54927 176.656 9.73594C176.954 9.91327 177.36 10.0019 177.874 10.0019ZM177.762 3.47794C178.284 3.47794 178.723 3.54794 179.078 3.68794C179.442 3.81861 179.731 4.00994 179.946 4.26194C180.17 4.50461 180.328 4.79861 180.422 5.14394C180.515 5.47994 180.562 5.85327 180.562 6.26394V10.8139C180.45 10.8326 180.291 10.8606 180.086 10.8979C179.89 10.9259 179.666 10.9539 179.414 10.9819C179.162 11.0099 178.886 11.0333 178.588 11.0519C178.298 11.0799 178.009 11.0939 177.72 11.0939C177.309 11.0939 176.931 11.0519 176.586 10.9679C176.24 10.8839 175.942 10.7533 175.69 10.5759C175.438 10.3893 175.242 10.1466 175.102 9.84794C174.962 9.54927 174.892 9.18994 174.892 8.76994C174.892 8.36861 174.971 8.02327 175.13 7.73394C175.298 7.44461 175.522 7.21127 175.802 7.03394C176.082 6.85661 176.408 6.72594 176.782 6.64194C177.155 6.55794 177.547 6.51594 177.958 6.51594C178.088 6.51594 178.224 6.52527 178.364 6.54394C178.504 6.55327 178.634 6.57194 178.756 6.59994C178.886 6.61861 178.998 6.63727 179.092 6.65594C179.185 6.67461 179.25 6.68861 179.288 6.69794V6.33394C179.288 6.11927 179.264 5.90927 179.218 5.70394C179.171 5.48927 179.087 5.30261 178.966 5.14394C178.844 4.97594 178.676 4.84527 178.462 4.75194C178.256 4.64927 177.986 4.59794 177.65 4.59794C177.22 4.59794 176.842 4.63061 176.516 4.69594C176.198 4.75194 175.96 4.81261 175.802 4.87794L175.648 3.79994C175.816 3.72527 176.096 3.65527 176.488 3.58994C176.88 3.51527 177.304 3.47794 177.762 3.47794ZM183.998 9.95994C184.054 9.96927 184.134 9.97861 184.236 9.98794C184.339 9.99727 184.456 10.0066 184.586 10.0159C184.717 10.0159 184.852 10.0206 184.992 10.0299C185.142 10.0299 185.282 10.0299 185.412 10.0299C185.683 10.0299 185.94 10.0113 186.182 9.97394C186.434 9.93661 186.649 9.87127 186.826 9.77794C187.013 9.68461 187.158 9.56327 187.26 9.41394C187.372 9.25527 187.428 9.05461 187.428 8.81194C187.428 8.57861 187.377 8.38727 187.274 8.23794C187.181 8.07927 187.05 7.95327 186.882 7.85994C186.714 7.76661 186.514 7.70127 186.28 7.66394C186.056 7.62661 185.814 7.60794 185.552 7.60794H183.998V9.95994ZM185.384 6.64194C185.636 6.64194 185.865 6.62794 186.07 6.59994C186.285 6.56261 186.467 6.50194 186.616 6.41794C186.775 6.33394 186.896 6.22194 186.98 6.08194C187.074 5.94194 187.12 5.76461 187.12 5.54994C187.12 5.32594 187.064 5.14861 186.952 5.01794C186.84 4.88727 186.691 4.78927 186.504 4.72394C186.327 4.64927 186.122 4.60261 185.888 4.58394C185.664 4.55594 185.436 4.54194 185.202 4.54194C184.988 4.54194 184.768 4.54661 184.544 4.55594C184.33 4.56527 184.148 4.57461 183.998 4.58394V6.64194H185.384ZM185.356 11.0659C184.806 11.0659 184.297 11.0379 183.83 10.9819C183.364 10.9353 182.995 10.8793 182.724 10.8139V3.72994C182.995 3.66461 183.364 3.60861 183.83 3.56194C184.297 3.50594 184.806 3.47794 185.356 3.47794C185.739 3.47794 186.112 3.51061 186.476 3.57594C186.84 3.64127 187.162 3.75327 187.442 3.91194C187.722 4.06127 187.946 4.27127 188.114 4.54194C188.292 4.80327 188.38 5.12994 188.38 5.52194C188.38 5.87661 188.292 6.17994 188.114 6.43194C187.937 6.68394 187.699 6.87994 187.4 7.01994C187.802 7.15994 188.119 7.36994 188.352 7.64994C188.595 7.92061 188.716 8.30327 188.716 8.79794C188.716 9.23661 188.628 9.60061 188.45 9.88994C188.282 10.1793 188.044 10.4126 187.736 10.5899C187.438 10.7673 187.083 10.8886 186.672 10.9539C186.262 11.0286 185.823 11.0659 185.356 11.0659ZM192.858 10.0019C193.166 10.0019 193.437 9.99727 193.67 9.98794C193.913 9.96927 194.114 9.94127 194.272 9.90394V7.73394C194.179 7.68727 194.025 7.64994 193.81 7.62194C193.605 7.58461 193.353 7.56594 193.054 7.56594C192.858 7.56594 192.648 7.57994 192.424 7.60794C192.21 7.63594 192.009 7.69661 191.822 7.78994C191.645 7.87394 191.496 7.99527 191.374 8.15394C191.253 8.30327 191.192 8.50394 191.192 8.75594C191.192 9.22261 191.342 9.54927 191.64 9.73594C191.939 9.91327 192.345 10.0019 192.858 10.0019ZM192.746 3.47794C193.269 3.47794 193.708 3.54794 194.062 3.68794C194.426 3.81861 194.716 4.00994 194.93 4.26194C195.154 4.50461 195.313 4.79861 195.406 5.14394C195.5 5.47994 195.546 5.85327 195.546 6.26394V10.8139C195.434 10.8326 195.276 10.8606 195.07 10.8979C194.874 10.9259 194.65 10.9539 194.398 10.9819C194.146 11.0099 193.871 11.0333 193.572 11.0519C193.283 11.0799 192.994 11.0939 192.704 11.0939C192.294 11.0939 191.916 11.0519 191.57 10.9679C191.225 10.8839 190.926 10.7533 190.674 10.5759C190.422 10.3893 190.226 10.1466 190.086 9.84794C189.946 9.54927 189.876 9.18994 189.876 8.76994C189.876 8.36861 189.956 8.02327 190.114 7.73394C190.282 7.44461 190.506 7.21127 190.786 7.03394C191.066 6.85661 191.393 6.72594 191.766 6.64194C192.14 6.55794 192.532 6.51594 192.942 6.51594C193.073 6.51594 193.208 6.52527 193.348 6.54394C193.488 6.55327 193.619 6.57194 193.74 6.59994C193.871 6.61861 193.983 6.63727 194.076 6.65594C194.17 6.67461 194.235 6.68861 194.272 6.69794V6.33394C194.272 6.11927 194.249 5.90927 194.202 5.70394C194.156 5.48927 194.072 5.30261 193.95 5.14394C193.829 4.97594 193.661 4.84527 193.446 4.75194C193.241 4.64927 192.97 4.59794 192.634 4.59794C192.205 4.59794 191.827 4.63061 191.5 4.69594C191.183 4.75194 190.945 4.81261 190.786 4.87794L190.632 3.79994C190.8 3.72527 191.08 3.65527 191.472 3.58994C191.864 3.51527 192.289 3.47794 192.746 3.47794ZM202.797 3.47794C203.217 3.47794 203.609 3.51994 203.973 3.60394C204.337 3.68794 204.65 3.81394 204.911 3.98194C205.172 4.14994 205.378 4.35994 205.527 4.61194C205.676 4.86394 205.751 5.15794 205.751 5.49394C205.751 5.70861 205.714 5.90461 205.639 6.08194C205.564 6.25927 205.471 6.41794 205.359 6.55794C205.247 6.69794 205.121 6.81927 204.981 6.92194C204.85 7.01527 204.724 7.08061 204.603 7.11794C205.032 7.24861 205.368 7.48194 205.611 7.81794C205.863 8.14461 205.989 8.55994 205.989 9.06394C205.989 9.75461 205.709 10.2679 205.149 10.6039C204.589 10.9399 203.828 11.1079 202.867 11.1079C202.279 11.1079 201.77 11.0613 201.341 10.9679C200.921 10.8746 200.622 10.7859 200.445 10.7019L200.669 9.59594C200.818 9.65194 201.084 9.73127 201.467 9.83394C201.859 9.92727 202.326 9.97394 202.867 9.97394C203.455 9.97394 203.903 9.88527 204.211 9.70794C204.519 9.52127 204.673 9.24594 204.673 8.88194C204.673 8.62061 204.612 8.41061 204.491 8.25194C204.379 8.08394 204.234 7.95794 204.057 7.87394C203.88 7.78994 203.688 7.73394 203.483 7.70594C203.278 7.67794 203.086 7.66394 202.909 7.66394H201.691V6.62794H202.867C203.035 6.62794 203.208 6.61861 203.385 6.59994C203.572 6.57194 203.74 6.52061 203.889 6.44594C204.048 6.37127 204.178 6.26861 204.281 6.13794C204.384 5.99794 204.435 5.81594 204.435 5.59194C204.435 5.41461 204.388 5.26527 204.295 5.14394C204.211 5.01327 204.094 4.90594 203.945 4.82194C203.796 4.73794 203.618 4.67727 203.413 4.63994C203.217 4.59327 203.012 4.56994 202.797 4.56994C202.629 4.56994 202.447 4.58394 202.251 4.61194C202.055 4.63994 201.864 4.67727 201.677 4.72394C201.49 4.76127 201.322 4.80327 201.173 4.84994C201.024 4.89661 200.916 4.93861 200.851 4.97594L200.613 3.85594C200.688 3.82794 200.804 3.79061 200.963 3.74394C201.122 3.69727 201.299 3.65527 201.495 3.61794C201.7 3.58061 201.915 3.54794 202.139 3.51994C202.363 3.49194 202.582 3.47794 202.797 3.47794ZM210.262 10.0019C210.57 10.0019 210.841 9.99727 211.074 9.98794C211.317 9.96927 211.518 9.94127 211.676 9.90394V7.73394C211.583 7.68727 211.429 7.64994 211.214 7.62194C211.009 7.58461 210.757 7.56594 210.458 7.56594C210.262 7.56594 210.052 7.57994 209.828 7.60794C209.614 7.63594 209.413 7.69661 209.226 7.78994C209.049 7.87394 208.9 7.99527 208.778 8.15394C208.657 8.30327 208.596 8.50394 208.596 8.75594C208.596 9.22261 208.746 9.54927 209.044 9.73594C209.343 9.91327 209.749 10.0019 210.262 10.0019ZM210.15 3.47794C210.673 3.47794 211.112 3.54794 211.466 3.68794C211.83 3.81861 212.12 4.00994 212.334 4.26194C212.558 4.50461 212.717 4.79861 212.81 5.14394C212.904 5.47994 212.95 5.85327 212.95 6.26394V10.8139C212.838 10.8326 212.68 10.8606 212.474 10.8979C212.278 10.9259 212.054 10.9539 211.802 10.9819C211.55 11.0099 211.275 11.0333 210.976 11.0519C210.687 11.0799 210.398 11.0939 210.108 11.0939C209.698 11.0939 209.32 11.0519 208.974 10.9679C208.629 10.8839 208.33 10.7533 208.078 10.5759C207.826 10.3893 207.63 10.1466 207.49 9.84794C207.35 9.54927 207.28 9.18994 207.28 8.76994C207.28 8.36861 207.36 8.02327 207.518 7.73394C207.686 7.44461 207.91 7.21127 208.19 7.03394C208.47 6.85661 208.797 6.72594 209.17 6.64194C209.544 6.55794 209.936 6.51594 210.346 6.51594C210.477 6.51594 210.612 6.52527 210.752 6.54394C210.892 6.55327 211.023 6.57194 211.144 6.59994C211.275 6.61861 211.387 6.63727 211.48 6.65594C211.574 6.67461 211.639 6.68861 211.676 6.69794V6.33394C211.676 6.11927 211.653 5.90927 211.606 5.70394C211.56 5.48927 211.476 5.30261 211.354 5.14394C211.233 4.97594 211.065 4.84527 210.85 4.75194C210.645 4.64927 210.374 4.59794 210.038 4.59794C209.609 4.59794 209.231 4.63061 208.904 4.69594C208.587 4.75194 208.349 4.81261 208.19 4.87794L208.036 3.79994C208.204 3.72527 208.484 3.65527 208.876 3.58994C209.268 3.51527 209.693 3.47794 210.15 3.47794ZM215.113 10.9399V3.65994H216.415V9.86194H219.103V3.65994H220.405V9.86194H223.093V3.65994H224.395V9.86194H225.375V12.9699H224.143V10.9399H215.113ZM232.907 3.65994V10.9399H231.647V5.39594C231.367 5.75061 231.059 6.16594 230.723 6.64194C230.387 7.11794 230.051 7.61261 229.715 8.12594C229.379 8.62994 229.057 9.12927 228.749 9.62394C228.441 10.1186 228.175 10.5573 227.951 10.9399H226.789V3.65994H228.049V8.89594C228.291 8.49461 228.567 8.05594 228.875 7.57994C229.183 7.09461 229.5 6.61861 229.827 6.15194C230.163 5.67594 230.494 5.22327 230.821 4.79394C231.157 4.35527 231.469 3.97727 231.759 3.65994H232.907ZM235.142 10.9399V3.65994H236.444V9.86194H239.132V3.65994H240.434V9.86194H243.122V3.65994H244.424V9.86194H245.404V12.9699H244.172V10.9399H235.142ZM246.412 7.31394C246.412 6.66994 246.505 6.10994 246.692 5.63394C246.879 5.14861 247.126 4.74727 247.434 4.42994C247.742 4.11261 248.097 3.87461 248.498 3.71594C248.899 3.55727 249.31 3.47794 249.73 3.47794C250.71 3.47794 251.461 3.78594 251.984 4.40194C252.507 5.00861 252.768 5.93727 252.768 7.18794C252.768 7.24394 252.768 7.31861 252.768 7.41194C252.768 7.49594 252.763 7.57527 252.754 7.64994H247.77C247.826 8.40594 248.045 8.97994 248.428 9.37194C248.811 9.76394 249.408 9.95994 250.22 9.95994C250.677 9.95994 251.06 9.92261 251.368 9.84794C251.685 9.76394 251.923 9.68461 252.082 9.60994L252.264 10.7019C252.105 10.7859 251.825 10.8746 251.424 10.9679C251.032 11.0613 250.584 11.1079 250.08 11.1079C249.445 11.1079 248.895 11.0146 248.428 10.8279C247.971 10.6319 247.593 10.3659 247.294 10.0299C246.995 9.69394 246.771 9.29727 246.622 8.83994C246.482 8.37327 246.412 7.86461 246.412 7.31394ZM251.41 6.59994C251.419 6.01194 251.27 5.53127 250.962 5.15794C250.663 4.77527 250.248 4.58394 249.716 4.58394C249.417 4.58394 249.151 4.64461 248.918 4.76594C248.694 4.87794 248.503 5.02727 248.344 5.21394C248.185 5.40061 248.059 5.61527 247.966 5.85794C247.882 6.10061 247.826 6.34794 247.798 6.59994H251.41ZM260.602 10.9399H259.3V7.71994H255.94V10.9399H254.638V3.65994H255.94V6.62794H259.3V3.65994H260.602V10.9399ZM265.515 7.34194C265.263 7.34194 265.016 7.35127 264.773 7.36994C264.54 7.37927 264.33 7.40727 264.143 7.45394V9.95994C264.199 9.96927 264.279 9.97861 264.381 9.98794C264.493 9.99727 264.61 10.0066 264.731 10.0159C264.862 10.0159 264.993 10.0206 265.123 10.0299C265.254 10.0299 265.371 10.0299 265.473 10.0299C266.043 10.0299 266.481 9.92261 266.789 9.70794C267.097 9.49327 267.251 9.14794 267.251 8.67194C267.251 8.43861 267.2 8.23794 267.097 8.06994C267.004 7.90194 266.873 7.76661 266.705 7.66394C266.547 7.55194 266.365 7.47261 266.159 7.42594C265.954 7.36994 265.739 7.34194 265.515 7.34194ZM262.841 3.65994H264.143V6.44594C264.302 6.40861 264.531 6.37127 264.829 6.33394C265.137 6.29661 265.431 6.27794 265.711 6.27794C266.094 6.27794 266.458 6.32461 266.803 6.41794C267.149 6.50194 267.452 6.64194 267.713 6.83794C267.975 7.02461 268.18 7.27194 268.329 7.57994C268.488 7.87861 268.567 8.23794 268.567 8.65794C268.567 9.09661 268.493 9.46994 268.343 9.77794C268.194 10.0859 267.984 10.3379 267.713 10.5339C267.443 10.7299 267.116 10.8699 266.733 10.9539C266.351 11.0473 265.931 11.0939 265.473 11.0939C265.035 11.0939 264.591 11.0659 264.143 11.0099C263.695 10.9633 263.261 10.8886 262.841 10.7859V3.65994ZM271.213 10.9399H269.911V3.65994H271.213V10.9399Z" fill="#9CA3AF"/>
</svg>
